<?xml version="1.0" encoding="UTF-8" standalone="no"?>
<!-- Created with Inkscape (http://www.inkscape.org/) -->

<svg
   width="104.42683mm"
   height="115.65228mm"
   viewBox="0 0 104.42683 115.65228"
   version="1.1"
   id="svg1"
   xml:space="preserve"
   xmlns="http://www.w3.org/2000/svg"
   xmlns:svg="http://www.w3.org/2000/svg"><defs
     id="defs1"><linearGradient
       id="swatch5"><stop
         style="stop-color:#ffff00;stop-opacity:1;"
         offset="0"
         id="stop5" /></linearGradient></defs><g
     id="layer1"
     transform="translate(-250.825,-220.6625)"><rect
       style="font-variation-settings:'wght' 548;fill:#ffffff;fill-opacity:1;fill-rule:nonzero;stroke:none;stroke-width:0.264583"
       id="rect17-6"
       width="80.730675"
       height="100.08011"
       x="262.67828"
       y="236.17975" /><path
       id="rect3-86"
       style="font-variation-settings:'wght' 548;fill:#0d1321;fill-opacity:1;fill-rule:evenodd;stroke:none;stroke-width:0.35269"
       d="m 250.97709,220.67031 c -0.18166,0.29926 -0.21147,115.17783 -0.03,115.4715 0.21166,0.34248 32.65135,0.12871 34.50693,-0.22738 3.33139,-0.63928 6.99594,-2.22474 9.52035,-4.11964 1.46337,-1.09844 5.29309,-4.91351 5.29529,-5.27513 6.6e-4,-0.10737 -4.43405,-0.22643 -9.8547,-0.26458 l -9.85573,-0.0698 -0.0801,-1.38906 c -0.0785,-1.3637 -0.0664,-1.38895 0.66146,-1.39165 0.40779,-0.002 5.36521,-0.0146 11.01587,-0.0289 l 10.27379,-0.0258 1.46348,-3.07992 c 0.80489,-1.69404 1.57173,-3.29117 1.70428,-3.54914 0.1654,-0.32187 0.13548,-0.50869 -0.0956,-0.59531 -0.18519,-0.0694 -5.87334,-0.15581 -12.64005,-0.19223 l -12.30313,-0.0667 -0.14521,-1.26555 c -0.08,-0.69612 -0.0901,-1.3212 -0.0222,-1.38907 0.0679,-0.0679 6.03768,-0.1235 13.26586,-0.1235 h 13.14183 l 0.72554,-3.02204 c 0.39899,-1.6623 0.68617,-3.29941 0.6382,-3.63802 l -0.0873,-0.61598 -13.45757,-0.0517 c -7.40161,-0.0286 -13.51106,-0.10568 -13.57695,-0.17157 -0.0951,-0.095 -0.14578,-12.34477 -0.0935,-22.59862 l 0.008,-1.65468 22.11286,0.0672 22.11286,0.0677 0.046,27.38437 0.046,27.38438 h 14.94896 14.94896 l 0.0636,-57.54688 c 0.0348,-31.65074 0.0133,-57.68309 -0.0475,-57.84969 -0.0608,-0.16661 -3.30368,2.83691 -7.2068,6.67452 l -7.09672,6.97787 -37.80182,0.006 -37.80131,0.006 -4.13515,-4.0044 c -2.27415,-2.20239 -5.46329,-5.36337 -7.08742,-7.02438 -1.62414,-1.66101 -3.01091,-2.92485 -3.08147,-2.80861 z m 52.06865,19.10426 c 15.81963,-0.002 31.6396,0.10545 31.77532,0.32504 0.11233,0.18176 -6.06761,6.49937 -15.65847,16.00729 -8.71421,8.63886 -16.02381,15.68749 -16.24345,15.66365 -0.64396,-0.0699 -31.86754,-31.30674 -31.6482,-31.66164 0.13574,-0.21963 15.95517,-0.33195 31.7748,-0.33434 z m 27.25519,19.20864 c 2.43605,0.002 2.7612,0.0647 4.10104,0.79375 2.60052,1.41513 4.30379,3.5221 5.25446,6.49935 0.66663,2.0877 0.62344,2.12639 -2.2779,2.04122 l -2.57969,-0.0754 -0.13229,-0.79375 c -0.20317,-1.21904 -1.04081,-2.40627 -2.12907,-3.0179 -1.18993,-0.66878 -3.35896,-0.73998 -4.50412,-0.1478 -0.95592,0.49433 -2.36264,2.37131 -2.36264,3.15226 0,0.31287 -0.14268,0.71163 -0.3173,0.88625 -0.17463,0.17463 -0.38302,0.29387 -0.46302,0.26459 -0.08,-0.0293 -1.06846,-0.0941 -2.19625,-0.14366 l -2.05052,-0.0904 v -1.03456 c 0,-0.98405 0.11674,-1.38893 0.971,-3.36517 0.57993,-1.34159 2.83729,-3.46936 4.51394,-4.25504 1.34143,-0.62859 1.84749,-0.71525 4.17236,-0.71365 z m -55.29792,0.007 c 2.38432,-0.008 2.79825,0.0664 4.18579,0.74776 1.81001,0.88877 3.82794,2.7867 4.52066,4.25194 0.56359,1.19211 1.23506,3.87388 1.04644,4.17907 -0.2238,0.36212 -4.86225,0.24557 -4.97644,-0.12506 -0.056,-0.1819 -0.17144,-0.64921 -0.25631,-1.03818 -0.20241,-0.92765 -1.29495,-2.20565 -2.32441,-2.71921 -1.3278,-0.66239 -3.39398,-0.53438 -4.60178,0.28525 -1.28342,0.87095 -1.5791,1.27232 -1.97559,2.67839 l -0.3173,1.12448 h -2.34714 c -1.29077,0 -2.35837,-0.0893 -2.37247,-0.19844 -0.38575,-2.98596 1.95167,-6.66727 5.35988,-8.44186 1.26515,-0.65873 1.68958,-0.73654 4.05867,-0.74414 z m 44.6996,26.51363 c -0.97574,-0.11177 -1.85049,0.23197 -2.65566,1.03714 -0.80408,0.80404 -0.90123,1.05628 -0.90123,2.33888 0,1.29274 0.0941,1.53127 0.93482,2.37195 0.79409,0.7941 1.11457,0.93534 2.12959,0.93534 2.26822,0 3.55017,-1.1999 3.55017,-3.32331 0,-1.5205 -0.68496,-2.55697 -2.0469,-3.09645 -0.34881,-0.13817 -0.68555,-0.22629 -1.01079,-0.26355 z m -0.96429,13.98002 c -0.64749,0.11714 -1.27995,0.42678 -1.81487,0.9617 -0.64805,0.64805 -0.77773,0.99327 -0.77773,2.06809 0,1.69277 0.37081,2.44152 1.54667,3.12333 1.14323,0.66288 2.16341,0.72005 3.20808,0.17983 1.15055,-0.59498 1.85983,-1.76267 1.85983,-3.06234 0,-2.23954 -2.07951,-3.62201 -4.02198,-3.27061 z m 0.71882,13.86996 c -2.06913,0 -3.31142,1.28318 -3.31142,3.42098 0,1.16206 0.11393,1.43737 0.93482,2.25826 0.84068,0.84068 1.07973,0.93534 2.37247,0.93534 1.29274,0 1.53178,-0.0947 2.37246,-0.93534 0.83129,-0.83129 0.93459,-1.08778 0.93431,-2.31511 -4.8e-4,-2.04832 -1.29248,-3.36413 -3.30264,-3.36413 z m 0.84698,13.99604 c -1.79541,-0.0821 -2.47186,0.10098 -3.29851,0.89349 -0.76807,0.73636 -0.85967,0.98137 -0.85938,2.29392 3.3e-4,1.52083 0.4597,2.34957 1.7229,3.1073 0.99505,0.59689 3.06106,0.29568 3.98942,-0.58188 0.59432,-0.56179 0.90175,-1.45412 0.90175,-2.61741 0,-1.01989 -0.13975,-1.33864 -0.93483,-2.13372 -0.51418,-0.51417 -1.19878,-0.94696 -1.52135,-0.9617 z" /><circle
       style="font-variation-settings:'wght' 548;fill:#43b4ff;fill-opacity:1;fill-rule:nonzero;stroke-width:0.264583"
       id="circle14-6"
       cx="319.52399"
       cy="330.61237"
       r="3.5825808" /><circle
       style="font-variation-settings:'wght' 548;fill:#eef36a;fill-opacity:1;fill-rule:nonzero;stroke-width:0.264583"
       id="circle15-6"
       cx="319.39307"
       cy="316.73386"
       r="3.5825808" /><circle
       style="font-variation-settings:'wght' 548;fill:#63d471;fill-opacity:1;fill-rule:nonzero;stroke-width:0.264583"
       id="circle16-5"
       cx="319.39307"
       cy="302.7244"
       r="3.5825808" /><circle
       style="font-variation-settings:'wght' 548;fill:#d65780;fill-opacity:1;fill-rule:nonzero;stroke-width:0.264583"
       id="path14-6"
       cx="319.39307"
       cy="288.91135"
       r="3.5825808" /></g></svg>
